<svg width="527" height="71" viewBox="0 0 527 71" fill="none" xmlns="http://www.w3.org/2000/svg">
<g filter="url(#filter0_d_8_8)">
<path d="M3.888 39V7.224H8.064L27.696 33.96V7.224H31.296V39H27.12L7.488 12.168V39H3.888ZM48.4511 39.384C46.1151 39.384 44.0671 38.84 42.3071 37.752C40.5791 36.632 39.2351 35.128 38.2751 33.24C37.3151 31.352 36.8351 29.272 36.8351 27C36.8351 24.696 37.3151 22.616 38.2751 20.76C39.2351 18.872 40.5791 17.384 42.3071 16.296C44.0671 15.176 46.1151 14.616 48.4511 14.616C50.4351 14.616 52.1311 15 53.5391 15.768C54.9791 16.536 56.1471 17.576 57.0431 18.888V15H60.6431V39H57.0431V35.16C56.1471 36.44 54.9791 37.464 53.5391 38.232C52.1311 39 50.4351 39.384 48.4511 39.384ZM48.9311 36.12C50.7231 36.12 52.2271 35.704 53.4431 34.872C54.6911 34.04 55.6351 32.936 56.2751 31.56C56.9151 30.152 57.2351 28.632 57.2351 27C57.2351 25.336 56.9151 23.816 56.2751 22.44C55.6351 21.064 54.6911 19.96 53.4431 19.128C52.2271 18.296 50.7231 17.88 48.9311 17.88C47.1711 17.88 45.6511 18.296 44.3711 19.128C43.0911 19.96 42.1151 21.064 41.4431 22.44C40.7711 23.816 40.4351 25.336 40.4351 27C40.4351 28.632 40.7711 30.152 41.4431 31.56C42.1151 32.936 43.0911 34.04 44.3711 34.872C45.6511 35.704 47.1711 36.12 48.9311 36.12ZM66.726 10.968V6.264H70.614V10.968H66.726ZM66.87 39V15H70.47V39H66.87ZM86.8418 39.384C84.5058 39.384 82.4578 38.84 80.6978 37.752C78.9698 36.632 77.6258 35.128 76.6658 33.24C75.7058 31.352 75.2258 29.272 75.2258 27C75.2258 24.696 75.7058 22.616 76.6658 20.76C77.6258 18.872 78.9698 17.384 80.6978 16.296C82.4578 15.176 84.5058 14.616 86.8418 14.616C88.8258 14.616 90.5218 15 91.9298 15.768C93.3698 16.536 94.5378 17.576 95.4338 18.888V15H99.0338V39H95.4338V35.16C94.5378 36.44 93.3698 37.464 91.9298 38.232C90.5218 39 88.8258 39.384 86.8418 39.384ZM87.3218 36.12C89.1138 36.12 90.6178 35.704 91.8338 34.872C93.0818 34.04 94.0258 32.936 94.6658 31.56C95.3058 30.152 95.6258 28.632 95.6258 27C95.6258 25.336 95.3058 23.816 94.6658 22.44C94.0258 21.064 93.0818 19.96 91.8338 19.128C90.6178 18.296 89.1138 17.88 87.3218 17.88C85.5618 17.88 84.0418 18.296 82.7618 19.128C81.4818 19.96 80.5058 21.064 79.8338 22.44C79.1618 23.816 78.8258 25.336 78.8258 27C78.8258 28.632 79.1618 30.152 79.8338 31.56C80.5058 32.936 81.4818 34.04 82.7618 34.872C84.0418 35.704 85.5618 36.12 87.3218 36.12ZM105.261 39V15H108.861V20.904C108.989 20.488 109.229 19.944 109.581 19.272C109.965 18.568 110.509 17.864 111.213 17.16C111.917 16.456 112.797 15.864 113.853 15.384C114.941 14.872 116.221 14.616 117.693 14.616H117.933V18.216H117.501C115.709 18.216 114.157 18.712 112.845 19.704C111.565 20.664 110.573 21.928 109.869 23.496C109.197 25.032 108.861 26.68 108.861 28.44V39H105.261ZM131.326 39.384C128.99 39.384 126.942 38.84 125.182 37.752C123.454 36.632 122.11 35.128 121.15 33.24C120.19 31.352 119.71 29.272 119.71 27C119.71 24.696 120.19 22.616 121.15 20.76C122.11 18.872 123.454 17.384 125.182 16.296C126.942 15.176 128.99 14.616 131.326 14.616C133.31 14.616 135.006 15 136.414 15.768C137.854 16.536 139.022 17.576 139.918 18.888V15H143.518V39H139.918V35.16C139.022 36.44 137.854 37.464 136.414 38.232C135.006 39 133.31 39.384 131.326 39.384ZM131.806 36.12C133.598 36.12 135.102 35.704 136.318 34.872C137.566 34.04 138.51 32.936 139.15 31.56C139.79 30.152 140.11 28.632 140.11 27C140.11 25.336 139.79 23.816 139.15 22.44C138.51 21.064 137.566 19.96 136.318 19.128C135.102 18.296 133.598 17.88 131.806 17.88C130.046 17.88 128.526 18.296 127.246 19.128C125.966 19.96 124.99 21.064 124.318 22.44C123.646 23.816 123.31 25.336 123.31 27C123.31 28.632 123.646 30.152 124.318 31.56C124.99 32.936 125.966 34.04 127.246 34.872C128.526 35.704 130.046 36.12 131.806 36.12ZM167.164 39L157.276 7.224H161.068L169.228 33.912L177.772 7.224H181.9L190.444 33.912L198.604 7.224H202.396L192.508 39H188.428L179.836 12.312L171.244 39H167.164ZM215.01 39.384C212.578 39.384 210.45 38.84 208.626 37.752C206.802 36.632 205.378 35.128 204.354 33.24C203.362 31.352 202.866 29.272 202.866 27C202.866 24.696 203.346 22.616 204.306 20.76C205.266 18.872 206.642 17.384 208.434 16.296C210.226 15.176 212.338 14.616 214.77 14.616C217.234 14.616 219.346 15.176 221.106 16.296C222.898 17.384 224.274 18.872 225.234 20.76C226.194 22.616 226.674 24.696 226.674 27V28.44H206.562C206.754 29.848 207.202 31.144 207.906 32.328C208.642 33.48 209.618 34.408 210.834 35.112C212.05 35.784 213.458 36.12 215.058 36.12C216.754 36.12 218.178 35.752 219.33 35.016C220.482 34.248 221.378 33.272 222.018 32.088H225.954C225.122 34.232 223.794 35.992 221.97 37.368C220.178 38.712 217.858 39.384 215.01 39.384ZM206.61 25.08H222.93C222.61 23.032 221.746 21.32 220.338 19.944C218.93 18.568 217.074 17.88 214.77 17.88C212.466 17.88 210.61 18.568 209.202 19.944C207.826 21.32 206.962 23.032 206.61 25.08ZM243.265 39.384C241.281 39.384 239.569 39 238.129 38.232C236.721 37.464 235.569 36.44 234.673 35.16V39H231.073V5.4H234.673V18.888C235.569 17.576 236.721 16.536 238.129 15.768C239.569 15 241.281 14.616 243.265 14.616C245.601 14.616 247.633 15.176 249.361 16.296C251.121 17.384 252.481 18.872 253.441 20.76C254.401 22.616 254.881 24.696 254.881 27C254.881 29.272 254.401 31.352 253.441 33.24C252.481 35.128 251.121 36.632 249.361 37.752C247.633 38.84 245.601 39.384 243.265 39.384ZM242.785 36.12C244.577 36.12 246.097 35.704 247.345 34.872C248.625 34.04 249.601 32.936 250.273 31.56C250.945 30.152 251.281 28.632 251.281 27C251.281 25.336 250.945 23.816 250.273 22.44C249.601 21.064 248.625 19.96 247.345 19.128C246.097 18.296 244.577 17.88 242.785 17.88C241.025 17.88 239.521 18.296 238.273 19.128C237.025 19.96 236.081 21.064 235.441 22.44C234.801 23.816 234.481 25.336 234.481 27C234.481 28.632 234.801 30.152 235.441 31.56C236.081 32.936 237.025 34.04 238.273 34.872C239.521 35.704 241.025 36.12 242.785 36.12ZM272.06 39V7.224H285.452C287.34 7.224 289.148 7.592 290.876 8.328C292.636 9.032 294.204 10.072 295.58 11.448C296.956 12.824 298.044 14.488 298.844 16.44C299.644 18.392 300.044 20.616 300.044 23.112C300.044 25.608 299.644 27.832 298.844 29.784C298.044 31.736 296.956 33.4 295.58 34.776C294.204 36.152 292.636 37.208 290.876 37.944C289.148 38.648 287.34 39 285.452 39H272.06ZM275.66 35.592H285.308C287.58 35.592 289.548 35.016 291.212 33.864C292.876 32.712 294.156 31.192 295.052 29.304C295.98 27.416 296.444 25.352 296.444 23.112C296.444 20.84 295.98 18.76 295.052 16.872C294.156 14.984 292.876 13.48 291.212 12.36C289.548 11.208 287.58 10.632 285.308 10.632H275.66V35.592ZM315.698 39.384C313.266 39.384 311.138 38.84 309.314 37.752C307.49 36.632 306.066 35.128 305.042 33.24C304.05 31.352 303.554 29.272 303.554 27C303.554 24.696 304.034 22.616 304.994 20.76C305.954 18.872 307.33 17.384 309.122 16.296C310.914 15.176 313.026 14.616 315.458 14.616C317.922 14.616 320.034 15.176 321.794 16.296C323.586 17.384 324.962 18.872 325.922 20.76C326.882 22.616 327.362 24.696 327.362 27V28.44H307.25C307.442 29.848 307.89 31.144 308.594 32.328C309.33 33.48 310.306 34.408 311.522 35.112C312.738 35.784 314.146 36.12 315.746 36.12C317.442 36.12 318.866 35.752 320.018 35.016C321.17 34.248 322.066 33.272 322.706 32.088H326.642C325.81 34.232 324.482 35.992 322.658 37.368C320.866 38.712 318.546 39.384 315.698 39.384ZM307.298 25.08H323.618C323.298 23.032 322.434 21.32 321.026 19.944C319.618 18.568 317.762 17.88 315.458 17.88C313.154 17.88 311.298 18.568 309.89 19.944C308.514 21.32 307.65 23.032 307.298 25.08ZM340.497 39.384C338.289 39.384 336.417 39.016 334.881 38.28C333.377 37.544 332.225 36.584 331.425 35.4C330.625 34.184 330.177 32.872 330.081 31.464H333.825C333.921 32.264 334.193 33.048 334.641 33.816C335.121 34.552 335.841 35.16 336.801 35.64C337.761 36.088 339.009 36.312 340.545 36.312C341.025 36.312 341.617 36.264 342.321 36.168C343.025 36.072 343.697 35.896 344.337 35.64C345.009 35.384 345.569 35 346.017 34.488C346.465 33.976 346.689 33.32 346.689 32.52C346.689 31.528 346.305 30.76 345.537 30.216C344.769 29.672 343.777 29.256 342.561 28.968C341.345 28.648 340.049 28.344 338.673 28.056C337.329 27.768 336.049 27.4 334.833 26.952C333.617 26.472 332.625 25.816 331.857 24.984C331.089 24.12 330.705 22.952 330.705 21.48C330.705 19.304 331.489 17.624 333.057 16.44C334.657 15.224 337.009 14.616 340.113 14.616C342.225 14.616 343.937 14.952 345.249 15.624C346.593 16.264 347.601 17.096 348.273 18.12C348.977 19.144 349.393 20.248 349.521 21.432H345.873C345.745 20.408 345.233 19.528 344.337 18.792C343.473 18.056 342.033 17.688 340.017 17.688C336.209 17.688 334.305 18.84 334.305 21.144C334.305 22.104 334.689 22.84 335.457 23.352C336.225 23.864 337.217 24.28 338.433 24.6C339.649 24.888 340.929 25.176 342.273 25.464C343.649 25.72 344.945 26.088 346.161 26.568C347.377 27.048 348.369 27.736 349.137 28.632C349.905 29.496 350.289 30.68 350.289 32.184C350.289 34.52 349.393 36.312 347.601 37.56C345.841 38.776 343.473 39.384 340.497 39.384ZM354.773 10.968V6.264H358.661V10.968H354.773ZM354.917 39V15H358.517V39H354.917ZM375.753 48.888C372.745 48.888 370.297 48.232 368.409 46.92C366.521 45.64 365.241 43.96 364.569 41.88H368.553C369.033 43.064 369.865 43.976 371.049 44.616C372.233 45.288 373.737 45.624 375.561 45.624C378.313 45.624 380.313 44.968 381.561 43.656C382.841 42.376 383.481 40.504 383.481 38.04V34.728C382.585 36.008 381.417 37.048 379.977 37.848C378.569 38.616 376.873 39 374.889 39C372.553 39 370.505 38.472 368.745 37.416C367.017 36.328 365.673 34.856 364.713 33C363.753 31.144 363.273 29.08 363.273 26.808C363.273 24.504 363.753 22.44 364.713 20.616C365.673 18.76 367.017 17.304 368.745 16.248C370.505 15.16 372.553 14.616 374.889 14.616C376.873 14.616 378.569 15 379.977 15.768C381.417 16.504 382.585 17.528 383.481 18.84V15H387.081V38.28C387.081 41.704 386.089 44.328 384.105 46.152C382.153 47.976 379.369 48.888 375.753 48.888ZM375.369 35.736C377.129 35.736 378.617 35.336 379.833 34.536C381.081 33.736 382.025 32.664 382.665 31.32C383.337 29.944 383.673 28.44 383.673 26.808C383.673 25.144 383.337 23.64 382.665 22.296C382.025 20.952 381.081 19.88 379.833 19.08C378.617 18.28 377.129 17.88 375.369 17.88C373.609 17.88 372.089 18.28 370.809 19.08C369.529 19.88 368.553 20.952 367.881 22.296C367.209 23.64 366.873 25.144 366.873 26.808C366.873 28.44 367.209 29.944 367.881 31.32C368.553 32.664 369.529 33.736 370.809 34.536C372.089 35.336 373.609 35.736 375.369 35.736ZM393.308 39V15H396.908V18.744C397.772 17.592 398.828 16.616 400.076 15.816C401.324 15.016 402.924 14.616 404.876 14.616C406.54 14.616 408.092 15.016 409.532 15.816C411.004 16.584 412.188 17.752 413.084 19.32C414.012 20.856 414.476 22.76 414.476 25.032V39H410.876V25.128C410.876 22.952 410.252 21.208 409.004 19.896C407.756 18.552 406.14 17.88 404.156 17.88C402.812 17.88 401.596 18.184 400.508 18.792C399.42 19.4 398.54 20.264 397.868 21.384C397.228 22.472 396.908 23.736 396.908 25.176V39H393.308ZM431.151 39.384C428.719 39.384 426.591 38.84 424.767 37.752C422.943 36.632 421.519 35.128 420.495 33.24C419.503 31.352 419.007 29.272 419.007 27C419.007 24.696 419.487 22.616 420.447 20.76C421.407 18.872 422.783 17.384 424.575 16.296C426.367 15.176 428.479 14.616 430.911 14.616C433.375 14.616 435.487 15.176 437.247 16.296C439.039 17.384 440.415 18.872 441.375 20.76C442.335 22.616 442.815 24.696 442.815 27V28.44H422.703C422.895 29.848 423.343 31.144 424.047 32.328C424.783 33.48 425.759 34.408 426.975 35.112C428.191 35.784 429.599 36.12 431.199 36.12C432.895 36.12 434.319 35.752 435.471 35.016C436.623 34.248 437.519 33.272 438.159 32.088H442.095C441.263 34.232 439.935 35.992 438.111 37.368C436.319 38.712 433.999 39.384 431.151 39.384ZM422.751 25.08H439.071C438.751 23.032 437.887 21.32 436.479 19.944C435.071 18.568 433.215 17.88 430.911 17.88C428.607 17.88 426.751 18.568 425.343 19.944C423.967 21.32 423.103 23.032 422.751 25.08ZM447.214 39V15H450.814V20.904C450.942 20.488 451.182 19.944 451.534 19.272C451.918 18.568 452.462 17.864 453.166 17.16C453.87 16.456 454.75 15.864 455.806 15.384C456.894 14.872 458.174 14.616 459.646 14.616H459.886V18.216H459.454C457.662 18.216 456.11 18.712 454.798 19.704C453.518 20.664 452.526 21.928 451.822 23.496C451.15 25.032 450.814 26.68 450.814 28.44V39H447.214Z" fill="#F73CA1"/>
</g>
<defs>
<filter id="filter0_d_8_8" x="3.888" y="5.40002" width="455.998" height="43.488" filterUnits="userSpaceOnUse" color-interpolation-filters="sRGB">
<feFlood flood-opacity="0" result="BackgroundImageFix"/>
<feColorMatrix in="SourceAlpha" type="matrix" values="0 0 0 0 0 0 0 0 0 0 0 0 0 0 0 0 0 0 127 0" result="hardAlpha"/>
<feOffset/>
<feComposite in2="hardAlpha" operator="out"/>
<feColorMatrix type="matrix" values="0 0 0 0 0 0 0 0 0 0 0 0 0 0 0 0 0 0 0.25 0"/>
<feBlend mode="normal" in2="BackgroundImageFix" result="effect1_dropShadow_8_8"/>
<feBlend mode="normal" in="SourceGraphic" in2="effect1_dropShadow_8_8" result="shape"/>
</filter>
</defs>
</svg>
